{"title":"Olivia.Twist.2014.AR-SUB.HDRip.XviD.AC3-N33B","uid":12226096,"size":1138328132,"categoryP":"video","categoryS":"movies","magnet":"?xt=urn:btih:1f4d7a5b6386d483a537de8241a014001453e575&amp;dn=Olivia.Twist.2014.AR-SUB.HDRip.XviD.AC3-N33B&amp;tr=udp%3A%2F%2Ftracker.openbittorrent.com%3A80&amp;tr=udp%3A%2F%2Fopen.demonii.com%3A1337&amp;tr=udp%3A%2F%2Ftracker.coppersurfer.tk%3A6969&amp;tr=udp%3A%2F%2Fexodus.desync.com%3A6969","seeders":7,"leechers":4,"uploader":"xxxlavalxxx","files":4,"time":1439479415,"description":" &lt;a href=&quot;http://extraimago.com/image/qbA&quot; rel=&quot;nofollow&quot; target=&quot;_NEW&quot;&gt;http://extraimago.com/image/qbA&lt;/a&gt;\n &lt;a href=&quot;\nhttp://www.imdb.com/title/tt2947314/&quot; rel=&quot;nofollow&quot; target=&quot;_NEW&quot;&gt;\nhttp://www.imdb.com/title/tt2947314/&lt;/a&gt;\n\n\nOLIVIA TWIST is set in contemporary times in Stoke-on-Trent, a city once renowned for industrial splendor. Olivia, an orphan from Afghanistan, is on the run and finds shelter with Bob Fagin and his gang of mercenary metal thieves. She is put to the test and challenged to fight for her freedom and protect her innocence. Against the backdrop of the 2011 UK riots, cross-cultural tension and the pottery tradition, the adaptation stays true to the gritty tone and social commentary underlying the original classic novel by Charles Dickens.\n\nDirector: Arno Hazebroek\nWriters: Charles Dickens (novel), Jack Gold (story)\nStars: Martin Alcock, Hannah Belfield, Laura Bodell \nGenres: Drama\nCountry: UK\nLanguage: English\n\n\nOlivia.Twist.2014.AR-SUB.HDRip.XviD.AC3-N33B\n &lt;a href=&quot;\nhttp://www.imdb.com/title/tt2947314/&quot; rel=&quot;nofollow&quot; target=&quot;_NEW&quot;&gt;\nhttp://www.imdb.com/title/tt2947314/&lt;/a&gt;\nSource: 720p webdl\n\nGeneral\nComplete name: Olivia.Twist.2014.AR-SUB.HDRip.XviD.AC3-N33B.avi\nFormat: AVI\nFormat/Info: Audio Video Interleave\nFile size: 1.03 GiB\nDuration: 1h 14mn\nOverall bit rate: 1 990 Kbps\n\nVideo\nID: 0\nFormat: MPEG-4 Visual\nFormat profile: Advanced Simple@L5\nFormat settings, BVOP: 2\nFormat settings, QPel: No\nFormat settings, GMC: No warppoints\nFormat settings, Matrix: Default (H.263)\nMuxing mode: Packed bitstream\nCodec ID: XVID\nCodec ID/Hint: XviD\nDuration: 1h 14mn\nBit rate: 1 599 Kbps\nWidth: 720 pixels\nHeight: 304 pixels\nDisplay aspect ratio: 2.35:1\nFrame rate: 23.976 fps\nColor space: YUV\nChroma subsampling: 4:2:0\nBit depth: 8 bits\nScan type: Progressive\nCompression mode: Lossy\nBits/(Pixel*Frame): 0.305\nStream size: 847 MiB (80%)\nWriting library: XviD 73\n\nAudio\nID: 1\nFormat: AC-3\nFormat/Info: Audio Coding 3\nMode extension: CM (complete main)\nFormat settings, Endianness: Big\nCodec ID: 2000\nDuration: 1h 14mn\nBit rate mode: Constant\nBit rate: 384 Kbps\nChannel(s): 6 channels\nChannel positions: Front: L C R, Side: L R, LFE\nSampling rate: 48.0 KHz\nCompression mode: Lossy\nStream size: 203 MiB (19%)\nAlignment: Aligned on interleaves\nInterleave, duration: 64 ms (1.53 video frames)\nInterleave, preload duration: 192 ms \n\n &lt;a href=&quot;\nhttp://extraimago.com/image/qbW&quot; rel=&quot;nofollow&quot; target=&quot;_NEW&quot;&gt;\nhttp://extraimago.com/image/qbW&lt;/a&gt; &lt;a href=&quot;\nhttp://extraimago.com/image/qbf&quot; rel=&quot;nofollow&quot; target=&quot;_NEW&quot;&gt;\nhttp://extraimago.com/image/qbf&lt;/a&gt; &lt;a href=&quot;\nhttp://extraimago.com/image/q38&quot; rel=&quot;nofollow&quot; target=&quot;_NEW&quot;&gt;\nhttp://extraimago.com/image/q38&lt;/a&gt; &lt;a href=&quot;\nhttp://extraimago.com/image/q3a&quot; rel=&quot;nofollow&quot; target=&quot;_NEW&quot;&gt;\nhttp://extraimago.com/image/q3a&lt;/a&gt; &lt;a href=&quot;\nhttp://extraimago.com/image/q3w&quot; rel=&quot;nofollow&quot; target=&quot;_NEW&quot;&gt;\nhttp://extraimago.com/image/q3w&lt;/a&gt;","torrent":{"xt":"urn:btih:1f4d7a5b6386d483a537de8241a014001453e575","amp;dn":"Olivia.Twist.2014.AR-SUB.HDRip.XviD.AC3-N33B","amp;tr":["udp%3A%2F%2Ftracker.openbittorrent.com%3A80","udp%3A%2F%2Fopen.demonii.com%3A1337","udp%3A%2F%2Ftracker.coppersurfer.tk%3A6969","udp%3A%2F%2Fexodus.desync.com%3A6969"],"infoHash":"1f4d7a5b6386d483a537de8241a014001453e575","infoHashBuffer":{"type":"Buffer","data":[31,77,122,91,99,134,212,131,165,55,222,130,65,160,20,0,20,83,229,117]},"announce":[],"urlList":[]}}